<svg width="24" height="24" viewBox="0 0 24 24" fill="none" xmlns="http://www.w3.org/2000/svg">
<path d="M10.9282 0.590885C9.44112 0.714724 8.00376 1.12776 6.68184 1.78872C4.74864 2.7636 3.31128 4.06057 2.1132 5.88625C1.254 7.19161 0.66744 8.67025 0.37824 10.273C0.1884 11.3057 0.1968 13.338 0.38664 14.3376C1.17984 18.4764 3.94728 21.8306 7.77216 23.268C8.4 23.5075 8.64792 23.5159 8.86272 23.3011C9.01152 23.1523 9.02784 23.0285 9.02784 22.037V20.9465H7.97856C7.06992 20.9465 6.86328 20.9218 6.5328 20.7648C5.88024 20.4674 5.44224 19.9884 5.0292 19.129C4.6656 18.3689 4.20312 17.7989 3.63312 17.394C3.06312 16.9891 3.50928 16.6752 4.3188 16.9066C4.674 17.0141 4.87224 17.1379 5.22744 17.5097C5.47536 17.7658 5.814 18.1541 5.97096 18.377C6.15264 18.6331 6.42528 18.8726 6.71448 19.038C7.11096 19.261 7.2432 19.2941 7.78848 19.2859C8.12712 19.2775 8.54856 19.2197 8.72208 19.1621C9.01128 19.0546 9.05256 18.9886 9.21768 18.5011C9.3168 18.2119 9.48216 17.8567 9.58944 17.7245L9.77952 17.485L8.92848 17.3033C7.40016 16.981 6.5328 16.535 5.748 15.6674C4.93848 14.7835 4.48392 13.404 4.48392 11.8178C4.48392 10.5787 4.72344 9.78553 5.36784 8.90977L5.64864 8.52145L5.54952 8.01745C5.376 7.11697 5.61552 5.52241 5.946 5.39857C6.29304 5.26632 7.69728 5.77849 8.63904 6.38161L9.02736 6.62952L9.7956 6.48072C10.853 6.26592 13.1414 6.25776 14.1989 6.47256L14.9508 6.62952L15.6778 6.20808C16.4873 5.74537 17.2308 5.47272 17.7761 5.43985L18.1478 5.41512L18.3048 5.82817C18.5114 6.35689 18.5858 7.53001 18.4452 8.08345L18.3461 8.50488L18.7178 9.06672C19.3788 10.0745 19.4779 10.4381 19.4779 11.8591C19.4698 12.9 19.4448 13.2058 19.2878 13.7592C18.8251 15.3701 17.8421 16.4194 16.2806 16.9894C16.0824 17.0638 15.5453 17.2042 15.0746 17.3033L14.2236 17.485L14.4053 17.7079C14.5044 17.8402 14.6614 18.1375 14.7523 18.3689C14.9174 18.7572 14.934 18.9967 14.959 20.9465C14.9755 22.3841 15.0168 23.1276 15.0828 23.2018C15.3638 23.5488 15.7519 23.4828 17.0904 22.8466C18.7013 22.0949 20.3618 20.7317 21.4606 19.2612C22.4849 17.9064 23.3112 15.9898 23.6167 14.2961C23.8068 13.2468 23.8068 11.3798 23.6167 10.3306C23.1377 7.67857 21.6588 5.09281 19.643 3.39936C17.1902 1.31784 14.0674 0.310085 10.9282 0.590885Z" fill="black"/>
</svg>
